<?xml version="1.0" encoding="UTF-8"?>
<!DOCTYPE svg PUBLIC "-//W3C//DTD SVG 1.1//EN" "http://www.w3.org/Graphics/SVG/1.1/DTD/svg11.dtd">
<!-- Creator: CorelDRAW -->
<svg xmlns="http://www.w3.org/2000/svg" xml:space="preserve" width="40px" height="56px" version="1.1" style="shape-rendering:geometricPrecision; text-rendering:geometricPrecision; image-rendering:optimizeQuality; fill-rule:evenodd; clip-rule:evenodd"
viewBox="0 0 4000000 5591000"
 xmlns:xlink="http://www.w3.org/1999/xlink"
 xmlns:xodm="http://www.corel.com/coreldraw/odm/2003">
 <defs>
  <style type="text/css">
   <![CDATA[
    .str0 {stroke:#969BA0;stroke-width:237000;stroke-miterlimit:22.9256}
    .fil0 {fill:#969BA0}
   ]]>
  </style>
 </defs>
 <g id="Capa_x0020_1">
  <metadata id="CorelCorpID_0Corel-Layer"/>
  <path class="fil0 str0" d="M3521000 2708000l-1507000 -1843000c-15000,-17000 -260000,-201000 -473000,-27000 -213000,174000 -80000,453000 -68000,468000l949000 1162000 2000 3000c61000,74000 48000,178000 -29000,236000l-471000 385000 450000 555000 1147000 -939000zm-1465000 -173000l-449000 -554000 -1148000 938000 1508000 1844000c14000,17000 260000,201000 472000,27000 213000,-174000 80000,-453000 68000,-468000l-948000 -1162000 -2000 -3000c-61000,-74000 -48000,-178000 28000,-236000l471000 -386000zm-656000 -808000l-176000 -217000c-251000,-310000 -141000,-686000 127000,-905000 268000,-219000 690000,-216000 913000,56000l1614000 1967000c56000,71000 47000,172000 -21000,228000l-1277000 1045000 176000 217000c252000,310000 141000,686000 -127000,905000 -268000,219000 -690000,216000 -913000,-56000l-1613000 -1967000c-57000,-71000 -48000,-173000 21000,-229000l1276000 -1044000z"/>
 </g>
</svg>
