<?xml version="1.0" encoding="UTF-8"?>
<!DOCTYPE svg PUBLIC "-//W3C//DTD SVG 1.1//EN" "http://www.w3.org/Graphics/SVG/1.1/DTD/svg11.dtd">
<!-- Creator: CorelDRAW -->
<svg xmlns="http://www.w3.org/2000/svg" xml:space="preserve" width="16px" height="19px" version="1.1" style="shape-rendering:geometricPrecision; text-rendering:geometricPrecision; image-rendering:optimizeQuality; fill-rule:evenodd; clip-rule:evenodd"
viewBox="0 0 1600000 1900000"
 xmlns:xlink="http://www.w3.org/1999/xlink"
 xmlns:xodm="http://www.corel.com/coreldraw/odm/2003">
 <defs>
  <style type="text/css">
   <![CDATA[
    .str0 {stroke:#969BA0;stroke-width:90000;stroke-miterlimit:22.9256}
    .fil0 {fill:#969BA0}
   ]]>
  </style>
 </defs>
 <g id="Capa_x0020_1">
  <metadata id="CorelCorpID_0Corel-Layer"/>
  <path class="fil0 str0" d="M683000 423000c-95000,-141000 103000,-291000 212000,-137000 72000,102000 140000,202000 212000,304000 37000,51000 71000,100000 107000,151000 105000,154000 186000,214000 2000,342000l-287000 206000 61000 82000c10000,-3000 359000,-241000 388000,-276000 124000,-147000 30000,-265000 -58000,-395000 -44000,-64000 -86000,-122000 -129000,-185000 -44000,-64000 -86000,-123000 -129000,-184000 -35000,-50000 -88000,-139000 -141000,-176000 -160000,-113000 -372000,4000 -373000,189000 -1000,107000 90000,209000 156000,302000 22000,30000 156000,213000 163000,238000 -66000,55000 -159000,111000 -230000,161000 -41000,28000 -58000,53000 -24000,101000 96000,136000 191000,273000 287000,409000 29000,41000 50000,67000 32000,141000 -9000,21000 -20000,39000 -37000,52000 -59000,52000 -144000,32000 -189000,-29000 -135000,-188000 -265000,-380000 -398000,-569000 -27000,-39000 -21000,-38000 -38000,-84000 19000,-87000 17000,-83000 89000,-134000l300000 -223000 -62000 -76000c-77000,35000 -339000,221000 -386000,283000 -31000,41000 -53000,97000 -48000,156000 3000,76000 39000,120000 69000,163000 122000,174000 245000,348000 366000,523000 41000,58000 79000,106000 163000,125000 215000,49000 365000,-188000 247000,-367000 -39000,-59000 -271000,-369000 -277000,-400000 51000,-44000 230000,-149000 258000,-185000 35000,-43000 -11000,-88000 -48000,-140000 -86000,-121000 -175000,-245000 -258000,-368000z"/>
 </g>
</svg>
