<?xml version="1.0" encoding="UTF-8"?>
<!DOCTYPE svg PUBLIC "-//W3C//DTD SVG 1.1//EN" "http://www.w3.org/Graphics/SVG/1.1/DTD/svg11.dtd">
<!-- Creator: CorelDRAW -->
<svg xmlns="http://www.w3.org/2000/svg" xml:space="preserve" width="709px" height="709px" version="1.1" style="shape-rendering:geometricPrecision; text-rendering:geometricPrecision; image-rendering:optimizeQuality; fill-rule:evenodd; clip-rule:evenodd"
viewBox="0 0 70900000 70900000"
 xmlns:xlink="http://www.w3.org/1999/xlink"
 xmlns:xodm="http://www.corel.com/coreldraw/odm/2003">
 <defs>
  <style type="text/css">
   <![CDATA[
    .str0 {stroke:#25282B;stroke-width:236000;stroke-miterlimit:22.9256}
    .fil0 {fill:none}
    .fil1 {fill:#25282B;fill-rule:nonzero}
   ]]>
  </style>
 </defs>
 <g id="Capa_x0020_1">
  <metadata id="CorelCorpID_0Corel-Layer"/>
  <rect class="fil0" x="-67000" y="67000" width="70900000" height="70900000"/>
  <g id="_1192223296640">
   <path class="fil1 str0" d="M21178000 14588000c106000,-70000 213000,-140000 320000,-208000l67000 -43000 145000 -91000 82000 -51000 154000 -94000 68000 -41000 168000 -101000 4000 -2000c118000,-71000 237000,-140000 356000,-208000l79000 -45000 195000 -109000 14000 -7000 201000 -111000 36000 -19000 196000 -105000 12000 -6000 210000 -111000c1129000,-586000 2323000,-1101000 3583000,-1543000 6588000,-2310000 13023000,-1955000 19279000,1052000l17984000 8646000c1335000,642000 2227000,1652000 2676000,3030000 484000,1411000 418000,2757000 -198000,4037000l-58000 122000c-502000,1043000 -1255000,1824000 -2260000,2345000 -261000,140000 -539000,262000 -835000,366000 -1140000,437000 -2267000,462000 -3386000,84000 255000,1416000 384000,2825000 389000,4226000 205000,3339000 -628000,6956000 -2496000,10843000 -2403000,4997000 -5951000,8743000 -10640000,11226000l-31000 17000c-122000,65000 -246000,129000 -369000,192000l-2000 1000 -53000 27000 -53000 27000 -161000 80000 -54000 27000 -53000 26000 -163000 79000 -54000 26000 -54000 26000 -54000 26000 -109000 52000 -55000 25000 -55000 26000 -55000 25000 -110000 50000 -55000 25000 -112000 51000 -123000 54000 -206000 90000 -60000 26000 -56000 24000 -169000 71000 -48000 20000 -8000 3000 -20000 9000 -243000 99000 -21000 9000 -5000 1000 -52000 21000 -230000 91000 -17000 7000 -40000 15000 -263000 100000 -26000 10000c-90000,34000 -180000,67000 -270000,100000l-8000 3000 -14000 5000c-98000,35000 -196000,70000 -294000,105000 -103000,36000 -206000,71000 -309000,106000 -103000,35000 -205000,69000 -308000,103000 -103000,33000 -206000,66000 -308000,98000 -103000,32000 -206000,64000 -309000,95000l0 0c-102000,31000 -205000,61000 -307000,90000 -103000,30000 -206000,59000 -308000,87000l0 0c-102000,29000 -205000,56000 -307000,83000 -102000,27000 -205000,54000 -307000,79000l0 0c-103000,26000 -205000,51000 -307000,75000 -102000,25000 -205000,49000 -307000,71000l0 1000c-102000,23000 -204000,45000 -306000,67000 -102000,22000 -205000,43000 -306000,63000l-1000 0c-102000,21000 -203000,41000 -306000,60000 -203000,38000 -407000,74000 -611000,107000l0 0c-102000,17000 -203000,33000 -305000,48000l0 0c-4785000,719000 -9484000,0 -14086000,-2152000 -94000,-44000 -187000,-88000 -281000,-133000l-13000 -7000 -17971000 -8639000c-1335000,-642000 -2227000,-1652000 -2676000,-3030000 -484000,-1411000 -418000,-2757000 198000,-4037000l58000 -122000c622000,-1294000 1632000,-2186000 3030000,-2676000 1139000,-437000 2267000,-463000 3386000,-85000 -342000,-1900000 -459000,-3786000 -349000,-5659000 69000,-2937000 907000,-6078000 2510000,-9420000l5000 -10000 6000 -14000c92000,-189000 184000,-376000 279000,-562000l6000 -13000c1560000,-3069000 3570000,-5646000 6027000,-7731000 74000,-62000 148000,-124000 222000,-186000l14000 -11000c152000,-126000 307000,-250000 463000,-372000l17000 -14000 201000 -156000 49000 -37000 188000 -141000 47000 -36000c75000,-55000 151000,-111000 228000,-167000l0 0c78000,-56000 155000,-111000 234000,-166000l54000 -39000 161000 -112000 100000 -68000 118000 -80000 128000 -86000 39000 -25000zm27321000 27066000c744000,-1593000 1196000,-3198000 1354000,-4811000l1000 -12000 15000 -161000 1000 -13000 12000 -160000 1000 -13000 3000 -35000c121000,-1782000 -114000,-3583000 -710000,-5400000l-1000 -2000 -54000 -160000 -20000 -60000 -33000 -94000c-1311000,-3723000 -3730000,-6440000 -7271000,-8190000l-156000 -77000 -13000 -6000 -15000 -7000 -125000 -59000 -29000 -14000 -33000 -15000 -107000 -50000 -107000 -48000 -3000 -1000 -106000 -47000 -107000 -47000 -3000 -1000 -73000 -31000 -115000 -48000 -23000 -10000 -2000 -1000 -13000 -5000c-3327000,-1371000 -6736000,-1457000 -10215000,-227000 -751000,261000 -1461000,568000 -2130000,920000 -2675000,1425000 -4699000,3580000 -6080000,6454000 -1744000,3627000 -1967000,7337000 -631000,11117000 1330000,3759000 3814000,6497000 7414000,8228000 2293000,1102000 4606000,1601000 6949000,1494000 1347000,-78000 2705000,-359000 4075000,-843000 3727000,-1296000 6452000,-3717000 8193000,-7239000l76000 -155000 6000 -14000 75000 -157000z"/>
   <path class="fil1 str0" d="M40034000 37753000c-622000,1293000 -1601000,2163000 -2948000,2633000 -1347000,470000 -2670000,392000 -3956000,-226000 -1264000,-608000 -2139000,-1587000 -2613000,-2932000 -475000,-1346000 -407000,-2654000 215000,-3947000 605000,-1259000 1584000,-2129000 2932000,-2599000 1335000,-503000 2652000,-443000 3938000,176000 1309000,629000 2190000,1625000 2631000,2982000 475000,1346000 406000,2654000 -199000,3913000z"/>
   <path class="fil1 str0" d="M58173000 46452000c-2402000,4987000 -5947000,8726000 -10629000,11206000l-32000 17000c-122000,65000 -245000,129000 -369000,192000l-1000 1000 -53000 27000 -54000 27000 -160000 80000 -54000 27000 -54000 26000 -162000 79000 -54000 26000 -55000 26000 -54000 26000 -109000 51000 -55000 26000 -55000 25000 -54000 26000 -110000 50000 -55000 25000 -113000 51000 -122000 54000 -206000 90000 -60000 26000 -56000 24000 -170000 71000 -47000 20000 -9000 3000 -19000 8000 -243000 100000 -22000 9000 -4000 1000 -53000 21000 -229000 91000 -18000 7000 -40000 15000 -262000 100000 -27000 10000c-90000,34000 -179000,67000 -269000,100000l-9000 3000 -14000 5000c-97000,35000 -195000,70000 -294000,105000 -103000,36000 -205000,71000 -309000,106000 -102000,35000 -205000,69000 -308000,102000 -103000,34000 -205000,67000 -308000,99000 -103000,32000 -205000,64000 -308000,95000l0 0c-103000,31000 -205000,61000 -308000,90000 -103000,30000 -205000,59000 -307000,87000l0 0c-103000,29000 -205000,56000 -308000,83000 -102000,27000 -204000,54000 -307000,79000l0 0c-102000,26000 -204000,51000 -307000,75000 -102000,25000 -204000,49000 -306000,71000l0 1000c-103000,23000 -205000,45000 -307000,67000 -102000,22000 -204000,43000 -306000,63000l0 0c-102000,21000 -204000,41000 -306000,60000 -204000,38000 -408000,74000 -611000,107000l-1000 0c-101000,17000 -203000,33000 -305000,48000l0 0c-4785000,719000 -9483000,0 -14086000,-2152000 -93000,-44000 -187000,-88000 -280000,-133000l-14000 -7000 -17971000 -8639000c-1334000,-642000 -2227000,-1652000 -2676000,-3030000 -484000,-1411000 -418000,-2757000 198000,-4037000l59000 -122000c622000,-1294000 1632000,-2186000 3029000,-2676000 1140000,-438000 2267000,-463000 3386000,-85000 -342000,-1900000 -458000,-3786000 -349000,-5659000 69000,-2937000 907000,-6078000 2510000,-9420000l5000 -10000 7000 -14000c3000,-7000 6000,-13000 9000,-20000 3723000,-688000 7618000,1368000 9720000,4673000 -1735000,3620000 -1955000,7324000 -621000,11096000 1329000,3760000 3814000,6498000 7413000,8229000 2293000,1102000 4607000,1601000 6949000,1494000 1347000,-78000 2706000,-359000 4075000,-843000 3728000,-1296000 6452000,-3717000 8193000,-7239000 31000,-63000 62000,-126000 92000,-189000 1982000,3982000 5295000,6630000 9719000,4673000z"/>
  </g>
 </g>
</svg>
