<?xml version="1.0" encoding="UTF-8"?>
<!DOCTYPE svg PUBLIC "-//W3C//DTD SVG 1.1//EN" "http://www.w3.org/Graphics/SVG/1.1/DTD/svg11.dtd">
<!-- Creator: CorelDRAW -->
<svg xmlns="http://www.w3.org/2000/svg" xml:space="preserve" width="2126px" height="591px" version="1.1" style="shape-rendering:geometricPrecision; text-rendering:geometricPrecision; image-rendering:optimizeQuality; fill-rule:evenodd; clip-rule:evenodd"
viewBox="0 0 212600000 59056000"
 xmlns:xlink="http://www.w3.org/1999/xlink"
 xmlns:xodm="http://www.corel.com/coreldraw/odm/2003">
 <defs>
  <style type="text/css">
   <![CDATA[
    .str0 {stroke:#1C1C1E;stroke-width:2362000;stroke-miterlimit:22.9256}
    .str1 {stroke:#25282B;stroke-width:2362000;stroke-miterlimit:22.9256}
    .str2 {stroke:#1C1C1E;stroke-width:236000;stroke-miterlimit:22.9256}
    .fil0 {fill:#1C1C1E;fill-rule:nonzero}
    .fil1 {fill:#25282B;fill-rule:nonzero}
    .fil2 {fill:#25282B;fill-rule:nonzero}
   ]]>
  </style>
 </defs>
 <g id="Capa_x0020_1">
  <metadata id="CorelCorpID_0Corel-Layer"/>
  <g id="_1192220261648">
   <path class="fil0 str0" d="M80459000 30870000c0,-2222000 422000,-4311000 1267000,-6267000 844000,-1955000 1989000,-3655000 3433000,-5100000 1444000,-1444000 3144000,-2589000 5100000,-3433000 1956000,-845000 4044000,-1267000 6267000,-1267000 2222000,0 4311000,422000 6266000,1267000 1956000,844000 3656000,1989000 5100000,3433000 1445000,1445000 2589000,3145000 3434000,5100000 844000,1956000 1266000,4045000 1266000,6267000l0 14267000c0,578000 -199000,1066000 -600000,1466000 -400000,400000 -888000,600000 -1466000,600000 -578000,0 -1067000,-200000 -1467000,-600000 -400000,-400000 -600000,-888000 -600000,-1466000l0 -14267000c0,-1644000 -311000,-3189000 -933000,-4633000 -622000,-1445000 -1478000,-2712000 -2567000,-3800000 -1089000,-1089000 -2355000,-1945000 -3800000,-2567000 -1444000,-622000 -2989000,-933000 -4633000,-933000 -1645000,0 -3189000,311000 -4634000,933000 -1444000,622000 -2711000,1478000 -3800000,2567000 -1089000,1088000 -1944000,2355000 -2566000,3800000 -623000,1444000 -934000,2989000 -934000,4633000l0 14267000c0,578000 -200000,1066000 -600000,1466000 -400000,400000 -889000,600000 -1466000,600000 -578000,0 -1067000,-200000 -1467000,-600000 -400000,-400000 -600000,-888000 -600000,-1466000l0 -14267000zm35534000 -24400000c0,-578000 200000,-1067000 600000,-1467000 399000,-400000 888000,-600000 1466000,-600000 578000,0 1067000,200000 1467000,600000 400000,400000 600000,889000 600000,1467000l0 8200000 14733000 0c711000,0 1278000,200000 1700000,600000 422000,400000 634000,889000 634000,1467000 0,577000 -212000,1066000 -634000,1466000 -422000,400000 -989000,600000 -1700000,600000l-14733000 0 0 12334000c0,1644000 311000,3189000 933000,4633000 622000,1444000 1478000,2711000 2567000,3800000 1089000,1089000 2355000,1945000 3800000,2567000 1444000,622000 2989000,933000 4633000,933000 1645000,0 3178000,-300000 4600000,-900000 1423000,-600000 2667000,-1433000 3734000,-2500000 355000,-400000 811000,-633000 1366000,-700000 556000,-67000 1078000,78000 1567000,433000 356000,356000 578000,800000 667000,1334000 89000,533000 -23000,1044000 -334000,1533000 -1466000,1556000 -3200000,2767000 -5200000,3633000 -2000000,867000 -4133000,1300000 -6400000,1300000 -2222000,0 -4311000,-422000 -6266000,-1266000 -1956000,-845000 -3656000,-1989000 -5100000,-3434000 -1445000,-1444000 -2589000,-3144000 -3434000,-5100000 -844000,-1955000 -1266000,-4044000 -1266000,-6266000l0 -24667000zm29866000 24400000c0,-2178000 412000,-4233000 1234000,-6167000 822000,-1933000 1955000,-3633000 3400000,-5100000 1444000,-1466000 3122000,-2622000 5033000,-3466000 1911000,-845000 3956000,-1289000 6134000,-1334000 711000,0 1277000,200000 1699000,600000 423000,400000 634000,889000 634000,1467000 0,578000 -211000,1067000 -634000,1467000 -422000,400000 -988000,600000 -1699000,600000 -1601000,44000 -3112000,388000 -4534000,1033000 -1422000,644000 -2667000,1500000 -3733000,2567000 -1067000,1066000 -1900000,2322000 -2500000,3766000 -600000,1445000 -900000,2967000 -900000,4567000l0 14267000c0,578000 -200000,1066000 -600000,1466000 -400000,400000 -889000,600000 -1467000,600000 -578000,0 -1067000,-200000 -1467000,-600000 -400000,-400000 -600000,-888000 -600000,-1466000l0 -14267000zm32201000 -15933000c2133000,0 4166000,433000 6100000,1300000 1933000,866000 3633000,2033000 5100000,3500000 1466000,1466000 2633000,3177000 3500000,5133000 866000,1956000 1300000,4044000 1300000,6267000 0,2177000 -423000,4233000 -1267000,6166000 -844000,1934000 -1989000,3634000 -3433000,5100000 -1445000,1467000 -3145000,2623000 -5100000,3467000 -1956000,845000 -4067000,1267000 -6334000,1267000 -2222000,0 -4300000,-400000 -6233000,-1200000 -1933000,-800000 -3633000,-1911000 -5100000,-3334000 -1467000,-1422000 -2622000,-3111000 -3467000,-5066000 -844000,-1956000 -1267000,-4089000 -1267000,-6400000 0,-2223000 412000,-4300000 1234000,-6234000 822000,-1933000 1955000,-3622000 3400000,-5066000 1444000,-1445000 3155000,-2600000 5133000,-3467000 1978000,-867000 4123000,-1344000 6434000,-1433000zm-12067000 16200000c0,1644000 311000,3189000 933000,4633000 622000,1444000 1478000,2711000 2567000,3800000 1089000,1089000 2355000,1945000 3800000,2567000 1444000,622000 2989000,933000 4633000,933000 1645000,0 3200000,-311000 4667000,-933000 1467000,-622000 2744000,-1478000 3833000,-2567000 1089000,-1089000 1945000,-2356000 2567000,-3800000 622000,-1444000 933000,-2989000 933000,-4633000 0,-1645000 -311000,-3200000 -933000,-4667000 -622000,-1467000 -1478000,-2744000 -2567000,-3833000 -1089000,-1089000 -2366000,-1945000 -3833000,-2567000 -1467000,-622000 -3022000,-933000 -4667000,-933000 -1644000,0 -3189000,311000 -4633000,933000 -1445000,622000 -2711000,1478000 -3800000,2567000 -1089000,1089000 -1945000,2366000 -2567000,3833000 -622000,1467000 -933000,3022000 -933000,4667000zm44134000 14000000c0,578000 -200000,1066000 -600000,1466000 -401000,400000 -889000,600000 -1467000,600000 -2045000,-44000 -3756000,-444000 -5134000,-1200000 -1377000,-755000 -2499000,-1688000 -3366000,-2800000 -867000,-1111000 -1489000,-2288000 -1867000,-3533000 -378000,-1244000 -567000,-2356000 -567000,-3333000l0 -29867000c0,-578000 200000,-1067000 601000,-1467000 399000,-400000 888000,-600000 1466000,-600000 578000,0 1067000,200000 1467000,600000 400000,400000 600000,889000 600000,1467000l0 29867000c0,355000 78000,889000 233000,1600000 156000,711000 478000,1444000 967000,2200000 489000,755000 1178000,1422000 2067000,2000000 888000,578000 2066000,889000 3533000,933000 578000,0 1066000,200000 1467000,600000 400000,400000 600000,889000 600000,1467000z"/>
   <path class="fil1 str1" d="M6266000 27565000c0,2163000 408000,4203000 1224000,6120000 816000,1918000 1928000,3590000 3335000,5018000 1408000,1428000 3070000,2560000 4988000,3397000 1917000,836000 3957000,1254000 6120000,1254000 2284000,0 4416000,-438000 6395000,-1315000 1978000,-878000 3682000,-2091000 5110000,-3642000 326000,-367000 744000,-612000 1254000,-734000 510000,-122000 969000,-41000 1377000,245000 449000,367000 673000,867000 673000,1499000 0,633000 -183000,1153000 -550000,1561000 -1795000,1958000 -3917000,3478000 -6365000,4559000 -2448000,1081000 -5079000,1622000 -7894000,1622000 -2693000,0 -5223000,-510000 -7589000,-1530000 -2366000,-1020000 -4426000,-2418000 -6181000,-4192000 -1754000,-1775000 -3141000,-3856000 -4161000,-6243000 -1020000,-2386000 -1530000,-4926000 -1530000,-7619000 0,-2692000 510000,-5232000 1530000,-7619000 1020000,-2386000 2407000,-4467000 4161000,-6242000 1755000,-1775000 3815000,-3182000 6181000,-4222000 2366000,-1041000 4896000,-1561000 7589000,-1561000 2733000,0 5293000,530000 7680000,1591000 2387000,1061000 4478000,2509000 6273000,4345000 326000,327000 571000,735000 734000,1224000 163000,490000 102000,959000 -184000,1408000 -326000,489000 -805000,755000 -1438000,795000 -632000,41000 -1173000,-163000 -1621000,-612000 -1469000,-1264000 -3183000,-2407000 -5141000,-3427000 -1958000,-1020000 -4059000,-1530000 -6303000,-1530000 -2163000,0 -4203000,418000 -6120000,1255000 -1918000,836000 -3580000,1979000 -4988000,3427000 -1407000,1448000 -2519000,3131000 -3335000,5049000 -816000,1917000 -1224000,3957000 -1224000,6119000z"/>
   <path class="fil2" d="M178859000 49907000c-7000,-120000 -50000,-235000 -130000,-345000 -80000,-110000 -188000,-208000 -325000,-295000 -137000,-87000 -295000,-155000 -475000,-205000 -180000,-50000 -370000,-75000 -570000,-75000 -207000,0 -402000,25000 -585000,75000 -183000,50000 -342000,118000 -475000,205000 -134000,87000 -240000,190000 -320000,310000 -80000,120000 -120000,247000 -120000,380000 0,133000 50000,255000 150000,365000 100000,110000 225000,205000 375000,285000 150000,80000 312000,147000 485000,200000 173000,53000 337000,90000 490000,110000 306000,33000 595000,105000 865000,215000 270000,110000 505000,248000 705000,415000 200000,167000 356000,362000 470000,585000 113000,223000 170000,465000 170000,725000 0,267000 -59000,518000 -175000,755000 -117000,237000 -278000,442000 -485000,615000 -207000,174000 -447000,312000 -720000,415000 -274000,104000 -567000,155000 -880000,155000 -313000,0 -607000,-50000 -880000,-150000 -274000,-100000 -514000,-238000 -720000,-415000 -207000,-176000 -369000,-381000 -485000,-615000 -117000,-233000 -175000,-483000 -175000,-750000 0,-80000 28000,-148000 85000,-205000 56000,-56000 125000,-85000 205000,-85000 80000,0 148000,29000 205000,85000 56000,57000 85000,125000 85000,205000 0,187000 43000,362000 130000,525000 86000,163000 205000,305000 355000,425000 150000,120000 326000,215000 530000,285000 203000,70000 421000,105000 655000,105000 233000,0 453000,-35000 660000,-105000 207000,-70000 388000,-165000 545000,-285000 157000,-120000 278000,-262000 365000,-425000 86000,-163000 123000,-338000 110000,-525000 -14000,-173000 -67000,-335000 -160000,-485000 -94000,-150000 -214000,-283000 -360000,-400000 -147000,-117000 -315000,-213000 -505000,-290000 -190000,-76000 -388000,-132000 -595000,-165000 -280000,-20000 -549000,-73000 -805000,-160000 -257000,-87000 -482000,-198000 -675000,-335000 -194000,-137000 -349000,-297000 -465000,-480000 -117000,-183000 -175000,-385000 -175000,-605000 0,-220000 55000,-425000 165000,-615000 110000,-190000 261000,-357000 455000,-500000 193000,-143000 418000,-257000 675000,-340000 256000,-83000 531000,-125000 825000,-125000 293000,0 568000,42000 825000,125000 256000,83000 481000,197000 675000,340000 193000,143000 345000,310000 455000,500000 110000,190000 165000,395000 165000,615000 0,87000 -30000,160000 -90000,220000 -60000,60000 -134000,90000 -220000,90000 -87000,0 -159000,-32000 -215000,-95000 -57000,-63000 -89000,-148000 -95000,-255000zm3360000 2380000l-2640000 -3410000c-54000,-67000 -77000,-142000 -70000,-225000 7000,-83000 43000,-152000 110000,-205000 67000,-53000 142000,-77000 225000,-70000 83000,7000 152000,43000 205000,110000l2480000 3190000 2530000 -3190000c53000,-67000 122000,-103000 205000,-110000 83000,-7000 158000,17000 225000,70000 67000,53000 103000,122000 110000,205000 7000,83000 -17000,158000 -70000,225000l-2690000 3410000 0 2200000c0,87000 -30000,160000 -90000,220000 -60000,60000 -133000,90000 -220000,90000 -87000,0 -160000,-30000 -220000,-90000 -60000,-60000 -90000,-133000 -90000,-220000l0 -2200000zm7040000 -2380000c-7000,-120000 -50000,-235000 -130000,-345000 -80000,-110000 -188000,-208000 -325000,-295000 -137000,-87000 -295000,-155000 -475000,-205000 -180000,-50000 -370000,-75000 -570000,-75000 -207000,0 -402000,25000 -585000,75000 -183000,50000 -342000,118000 -475000,205000 -133000,87000 -240000,190000 -320000,310000 -80000,120000 -120000,247000 -120000,380000 0,133000 50000,255000 150000,365000 100000,110000 225000,205000 375000,285000 150000,80000 312000,147000 485000,200000 173000,53000 337000,90000 490000,110000 307000,33000 595000,105000 865000,215000 270000,110000 505000,248000 705000,415000 200000,167000 357000,362000 470000,585000 113000,223000 170000,465000 170000,725000 0,267000 -58000,518000 -175000,755000 -117000,237000 -278000,442000 -485000,615000 -207000,174000 -447000,312000 -720000,415000 -273000,104000 -567000,155000 -880000,155000 -313000,0 -607000,-50000 -880000,-150000 -273000,-100000 -513000,-238000 -720000,-415000 -207000,-176000 -368000,-381000 -485000,-615000 -117000,-233000 -175000,-483000 -175000,-750000 0,-80000 28000,-148000 85000,-205000 57000,-56000 125000,-85000 205000,-85000 80000,0 148000,29000 205000,85000 57000,57000 85000,125000 85000,205000 0,187000 43000,362000 130000,525000 87000,163000 205000,305000 355000,425000 150000,120000 327000,215000 530000,285000 203000,70000 422000,105000 655000,105000 233000,0 453000,-35000 660000,-105000 207000,-70000 388000,-165000 545000,-285000 157000,-120000 278000,-262000 365000,-425000 87000,-163000 123000,-338000 110000,-525000 -13000,-173000 -67000,-335000 -160000,-485000 -93000,-150000 -213000,-283000 -360000,-400000 -147000,-117000 -315000,-213000 -505000,-290000 -190000,-76000 -388000,-132000 -595000,-165000 -280000,-20000 -548000,-73000 -805000,-160000 -257000,-87000 -482000,-198000 -675000,-335000 -193000,-137000 -348000,-297000 -465000,-480000 -117000,-183000 -175000,-385000 -175000,-605000 0,-220000 55000,-425000 165000,-615000 110000,-190000 262000,-357000 455000,-500000 193000,-143000 418000,-257000 675000,-340000 257000,-83000 532000,-125000 825000,-125000 293000,0 568000,42000 825000,125000 257000,83000 482000,197000 675000,340000 193000,143000 345000,310000 455000,500000 110000,190000 165000,395000 165000,615000 0,87000 -30000,160000 -90000,220000 -60000,60000 -133000,90000 -220000,90000 -87000,0 -158000,-32000 -215000,-95000 -57000,-63000 -88000,-148000 -95000,-255000zm990000 -1220000c0,-87000 30000,-160000 90000,-220000 60000,-60000 133000,-90000 220000,-90000l4120000 0c87000,0 160000,30000 220000,90000 60000,60000 90000,133000 90000,220000 0,87000 -30000,160000 -90000,220000 -60000,60000 -133000,90000 -220000,90000l-1750000 0 0 5490000c0,87000 -30000,160000 -90000,220000 -60000,60000 -133000,90000 -220000,90000 -87000,0 -160000,-30000 -220000,-90000 -60000,-60000 -90000,-133000 -90000,-220000l0 -5490000 -1750000 0c-87000,0 -160000,-30000 -220000,-90000 -60000,-60000 -90000,-133000 -90000,-220000zm5110000 0c0,-87000 30000,-160000 90000,-220000 60000,-60000 133000,-90000 220000,-90000l3540000 0c87000,0 160000,30000 220000,90000 60000,60000 90000,133000 90000,220000 0,87000 -30000,160000 -90000,220000 -60000,60000 -133000,90000 -220000,90000l-3230000 0 0 2260000 2320000 0c87000,0 160000,30000 220000,90000 60000,60000 90000,133000 90000,220000 0,87000 -30000,160000 -90000,220000 -60000,60000 -133000,90000 -220000,90000l-2320000 0 0 2300000 3230000 0c87000,0 160000,30000 220000,90000 60000,60000 90000,134000 90000,220000 0,87000 -30000,160000 -90000,220000 -60000,60000 -133000,90000 -220000,90000l-3540000 0c-87000,0 -160000,-30000 -220000,-90000 -60000,-60000 -90000,-133000 -90000,-220000l0 -5800000zm7920000 3360000c-87000,0 -160000,-30000 -220000,-90000 -60000,-60000 -90000,-133000 -90000,-220000l0 -1520000c0,-173000 -32000,-335000 -95000,-485000 -63000,-150000 -152000,-282000 -265000,-395000 -113000,-113000 -245000,-202000 -395000,-265000 -150000,-63000 -308000,-95000 -475000,-95000 -173000,0 -333000,32000 -480000,95000 -147000,63000 -277000,152000 -390000,265000 -113000,113000 -202000,245000 -265000,395000 -63000,150000 -95000,312000 -95000,485000l0 4270000c0,87000 -30000,160000 -90000,220000 -60000,60000 -133000,90000 -220000,90000 -87000,0 -160000,-30000 -220000,-90000 -60000,-60000 -90000,-133000 -90000,-220000l0 -4270000c0,-253000 48000,-493000 145000,-720000 97000,-227000 228000,-423000 395000,-590000 167000,-167000 363000,-298000 590000,-395000 227000,-97000 467000,-145000 720000,-145000 320000,0 615000,75000 885000,225000 270000,150000 488000,352000 655000,605000 173000,-247000 393000,-445000 660000,-595000 267000,-150000 560000,-225000 880000,-225000 253000,0 492000,48000 715000,145000 223000,97000 418000,228000 585000,395000 167000,167000 298000,362000 395000,585000 97000,223000 145000,462000 145000,715000l0 4270000c0,87000 -30000,160000 -90000,220000 -60000,60000 -133000,90000 -220000,90000 -87000,0 -160000,-30000 -220000,-90000 -60000,-60000 -90000,-133000 -90000,-220000l0 -4270000c-33000,-387000 -167000,-690000 -400000,-910000 -233000,-220000 -507000,-330000 -820000,-330000 -167000,0 -323000,32000 -470000,95000 -147000,63000 -275000,150000 -385000,260000 -110000,110000 -198000,240000 -265000,390000 -67000,150000 -103000,315000 -110000,495000l0 1520000c0,87000 -30000,160000 -90000,220000 -60000,60000 -133000,90000 -220000,90000z"/>
   <g>
    <path class="fil0 str2" d="M57752000 47824000c-86000,8000 -172000,16000 -258000,23000l-54000 4000 -116000 9000 -65000 4000 -123000 8000 -53000 3000 -134000 7000 -2000 0c-94000,4000 -187000,8000 -280000,11000l-62000 2000 -152000 3000 -11000 0 -155000 3000 -28000 0 -151000 0 -9000 0 -162000 0c-864000,-8000 -1744000,-79000 -2641000,-215000 -4688000,-710000 -8436000,-2971000 -11233000,-6766000l-8040000 -10912000c-596000,-810000 -810000,-1699000 -641000,-2669000 158000,-1001000 626000,-1787000 1404000,-2360000l73000 -54000c633000,-466000 1334000,-696000 2102000,-688000 201000,-1000 407000,14000 618000,46000 823000,100000 1508000,444000 2059000,1027000 297000,-931000 668000,-1817000 1111000,-2659000 939000,-2069000 2590000,-3975000 4949000,-5712000 3031000,-2234000 6353000,-3353000 9956000,-3351000l25000 0c94000,0 188000,1000 282000,2000l1000 0 41000 1000 40000 1000 122000 3000 41000 1000 41000 1000 122000 4000 41000 2000 41000 2000 41000 2000 82000 3000 41000 2000 40000 3000 41000 2000 82000 5000 41000 2000 84000 6000 91000 6000 152000 12000 44000 3000 42000 4000 124000 11000 35000 3000 6000 1000 14000 1000 178000 18000 15000 1000 4000 1000 38000 4000 166000 18000 13000 2000 29000 3000 189000 24000 19000 2000c65000,9000 129000,17000 194000,26000l6000 1000 10000 2000c70000,10000 140000,20000 210000,30000 73000,11000 146000,23000 219000,35000 72000,11000 145000,24000 217000,36000 73000,13000 145000,26000 217000,39000 71000,14000 143000,27000 215000,42000l0 0c71000,14000 142000,28000 213000,43000 71000,15000 142000,30000 212000,46000l0 0c71000,16000 141000,32000 211000,48000 70000,16000 140000,33000 209000,50000l1000 0c69000,17000 138000,35000 208000,53000 69000,18000 138000,36000 206000,55000l0 0c69000,18000 137000,37000 206000,57000 68000,19000 136000,39000 203000,59000l1000 0c67000,20000 135000,41000 202000,62000 135000,42000 268000,85000 401000,130000l0 0c66000,22000 132000,45000 198000,68000l0 1000c3101000,1091000 5691000,3018000 7768000,5774000 42000,56000 84000,112000 126000,169000l6000 8000 8034000 10903000c596000,810000 810000,1700000 641000,2670000 -158000,1000000 -626000,1787000 -1404000,2360000l-73000 54000c-785000,578000 -1675000,792000 -2670000,642000 -823000,-101000 -1507000,-444000 -2059000,-1027000 -399000,1249000 -929000,2418000 -1591000,3506000 -976000,1741000 -2479000,3359000 -4504000,4854000l-6000 5000 -9000 6000c-115000,85000 -230000,167000 -346000,249000l-7000 5000c-1913000,1345000 -3939000,2252000 -6077000,2721000 -64000,14000 -129000,28000 -193000,41000l-12000 2000c-131000,28000 -263000,53000 -396000,77000l-14000 2000 -171000 30000 -41000 6000 -157000 26000 -40000 6000c-63000,9000 -126000,19000 -190000,27000l0 1000c-65000,9000 -129000,17000 -193000,25000l-45000 6000 -132000 16000 -82000 9000 -96000 10000 -104000 11000 -32000 3000zm-7780000 -24936000c-954000,719000 -1735000,1539000 -2344000,2456000l-4000 7000 -60000 92000 -5000 7000 -58000 92000 -5000 8000 -12000 20000c-641000,1031000 -1073000,2186000 -1293000,3466000l0 2000 -19000 113000 -7000 42000 -10000 67000c-398000,2651000 188000,5052000 1756000,7229000l70000 95000 6000 8000 6000 9000 56000 75000 13000 18000 15000 20000 49000 63000 49000 63000 1000 2000 49000 62000 49000 62000 1000 1000 34000 43000 54000 65000 11000 13000 1000 1000 6000 8000c1560000,1881000 3578000,3018000 6057000,3387000 534000,82000 1057000,124000 1571000,125000 2059000,-3000 3959000,-653000 5702000,-1937000 2201000,-1622000 3516000,-3777000 3916000,-6470000 399000,-2679000 -220000,-5113000 -1830000,-7297000 -1025000,-1391000 -2254000,-2427000 -3694000,-3108000 -833000,-381000 -1737000,-646000 -2713000,-791000 -2649000,-408000 -5055000,178000 -7220000,1737000l-95000 69000 -8000 6000 -95000 70000z"/>
    <path class="fil0 str2" d="M53810000 27923000c784000,-578000 1649000,-789000 2607000,-642000 957000,147000 1727000,614000 2302000,1395000 565000,767000 778000,1633000 635000,2591000 -144000,958000 -601000,1721000 -1386000,2300000 -764000,563000 -1628000,773000 -2586000,626000 -961000,-123000 -1732000,-578000 -2307000,-1358000 -586000,-795000 -797000,-1673000 -630000,-2627000 144000,-959000 601000,-1722000 1365000,-2285000z"/>
    <path class="fil0 str2" d="M45694000 16931000c3028000,-2228000 6346000,-3344000 9944000,-3342000l25000 0c94000,0 188000,1000 282000,2000l1000 0 41000 1000 40000 1000 122000 2000 41000 2000 41000 1000 122000 4000 41000 2000 41000 1000 41000 2000 82000 4000 40000 2000 41000 2000 41000 3000 82000 4000 41000 3000 84000 5000 91000 7000 152000 11000 44000 4000 42000 4000 124000 11000 35000 3000 6000 0 14000 2000 178000 18000 15000 1000 3000 0 39000 5000 166000 18000 13000 2000 29000 3000 189000 24000 19000 2000c65000,8000 129000,17000 194000,26000l6000 1000 10000 1000c70000,10000 140000,20000 209000,31000 74000,11000 147000,23000 220000,34000 72000,12000 145000,25000 217000,37000 73000,13000 145000,26000 217000,39000 71000,13000 143000,27000 214000,41000l1000 0c71000,14000 142000,29000 213000,44000 71000,15000 142000,30000 212000,46000l0 0c71000,15000 141000,31000 211000,48000 70000,16000 140000,33000 209000,50000l1000 0c69000,17000 138000,35000 207000,53000 70000,17000 138000,36000 207000,54000l0 0c69000,19000 137000,38000 205000,58000 69000,19000 137000,39000 204000,59000l0 0c68000,20000 136000,41000 203000,62000 135000,42000 268000,85000 401000,130000l0 0c66000,22000 132000,45000 198000,68000l0 0c3101000,1091000 5691000,3018000 7768000,5775000 42000,56000 84000,112000 126000,168000l6000 9000 8034000 10903000c596000,810000 810000,1700000 641000,2670000 -159000,1000000 -626000,1787000 -1404000,2359000l-73000 54000c-785000,579000 -1675000,793000 -2670000,642000 -823000,-100000 -1508000,-444000 -2059000,-1027000 -399000,1249000 -929000,2418000 -1591000,3507000 -976000,1740000 -2479000,3359000 -4504000,4854000l-6000 5000 -9000 6000c-4000,3000 -8000,6000 -12000,8000 -2453000,-771000 -4136000,-3244000 -4345000,-5896000 2193000,-1621000 3504000,-3773000 3904000,-6461000 399000,-2679000 -220000,-5113000 -1830000,-7297000 -1025000,-1391000 -2254000,-2427000 -3694000,-3108000 -833000,-382000 -1737000,-646000 -2713000,-791000 -2649000,-409000 -5055000,177000 -7220000,1737000 -39000,27000 -77000,55000 -115000,83000 77000,-3020000 -1067000,-5663000 -4345000,-5896000z"/>
   </g>
  </g>
 </g>
</svg>
