<?xml version="1.0" encoding="UTF-8"?>
<!DOCTYPE svg PUBLIC "-//W3C//DTD SVG 1.1//EN" "http://www.w3.org/Graphics/SVG/1.1/DTD/svg11.dtd">
<!-- Creator: CorelDRAW -->
<svg xmlns="http://www.w3.org/2000/svg" xml:space="preserve" width="120px" height="47px" version="1.1" style="shape-rendering:geometricPrecision; text-rendering:geometricPrecision; image-rendering:optimizeQuality; fill-rule:evenodd; clip-rule:evenodd"
viewBox="0 0 12000000 4700000"
 xmlns:xlink="http://www.w3.org/1999/xlink"
 xmlns:xodm="http://www.corel.com/coreldraw/odm/2003">
 <defs>
  <style type="text/css">
   <![CDATA[
    .fil2 {fill:black}
    .fil3 {fill:#1C1C1C}
    .fil0 {fill:#288840}
    .fil1 {fill:#FDCD02}
   ]]>
  </style>
 </defs>
 <g id="Capa_x0020_1">
  <metadata id="CorelCorpID_0Corel-Layer"/>
  <g id="_2618400209952">
   <path class="fil0" d="M2775000 4530000c818000,-4000 1684000,-23000 2497000,3000 265000,8000 2396000,20000 2476000,-9000l-2480000 -3000 630000 -1017000c218000,-332000 416000,-667000 624000,-1002000 72000,-116000 1223000,-1939000 1244000,-2008000l-2503000 6000c-12000,68000 -539000,890000 -623000,1023000 -511000,820000 -1042000,1696000 -1561000,2505000 -52000,82000 -291000,450000 -304000,502000z"/>
   <path class="fil1" d="M2775000 4530000c13000,-52000 252000,-420000 304000,-502000 519000,-809000 1050000,-1685000 1561000,-2505000 84000,-133000 611000,-955000 623000,-1023000l-2476000 -5000 -623000 1006000c-130000,215000 -1868000,2954000 -1870000,3029000l2481000 0z"/>
   <path class="fil2" d="M7748000 4524000l632000 -1008000c212000,-327000 410000,-669000 624000,-1002000 215000,-335000 419000,-676000 630000,-1012000 107000,-169000 206000,-333000 313000,-501000l311000 -506000 -2492000 -1000c-21000,69000 -1172000,1892000 -1244000,2008000 -208000,335000 -406000,670000 -624000,1002000l-630000 1017000 2480000 3000z"/>
   <g>
    <path class="fil3" d="M10716000 911000c-103000,-605000 734000,-711000 828000,-176000 47000,266000 -123000,484000 -336000,522000 -258000,46000 -455000,-134000 -492000,-346000zm243000 -621000c-726000,232000 -393000,1276000 338000,1071000 733000,-205000 396000,-1305000 -338000,-1071000z"/>
    <path class="fil3" d="M11033000 609000c333000,-38000 307000,205000 -2000,153000l2000 -153000zm-127000 526000l123000 1000 3000 -264000c101000,-16000 98000,31000 138000,102000 30000,52000 66000,111000 87000,161000l128000 1000c-38000,-97000 -120000,-183000 -152000,-269000 67000,-36000 116000,-31000 141000,-96000 29000,-74000 11000,-171000 -28000,-209000 -75000,-72000 -311000,-57000 -441000,-54000l1000 627000z"/>
   </g>
  </g>
 </g>
</svg>
