<?xml version="1.0" encoding="UTF-8"?>
<!DOCTYPE svg PUBLIC "-//W3C//DTD SVG 1.1//EN" "http://www.w3.org/Graphics/SVG/1.1/DTD/svg11.dtd">
<!-- Creator: CorelDRAW -->
<svg xmlns="http://www.w3.org/2000/svg" xml:space="preserve" width="270px" height="47px" version="1.1" style="shape-rendering:geometricPrecision; text-rendering:geometricPrecision; image-rendering:optimizeQuality; fill-rule:evenodd; clip-rule:evenodd"
viewBox="0 0 27000000 4700000"
 xmlns:xlink="http://www.w3.org/1999/xlink"
 xmlns:xodm="http://www.corel.com/coreldraw/odm/2003">
 <defs>
  <style type="text/css">
   <![CDATA[
    .fil0 {fill:black}
    .fil3 {fill:black}
    .fil1 {fill:#008A3A}
    .fil2 {fill:#FFCE00}
   ]]>
  </style>
 </defs>
 <g id="Capa_x0020_1">
  <metadata id="CorelCorpID_0Corel-Layer"/>
  <g id="_2618440508224">
   <g>
    <path class="fil0" d="M6536000 3985000c154000,-184000 350000,-559000 498000,-786000 178000,-274000 330000,-539000 509000,-815000 184000,-284000 881000,-1470000 1035000,-1617000l0 3247000c411000,36000 965000,10000 1386000,7000 1576000,-9000 1761000,-1646000 1379000,-2497000 -398000,-889000 -1241000,-807000 -1991000,-807000 -941000,0 -1887000,10000 -2827000,-1000 -53000,177000 -381000,636000 -496000,831000l-1516000 2442000 2023000 -4000zm2771000 -578000c649000,-8000 1471000,153000 1463000,-1012000 -8000,-1175000 -769000,-1058000 -1465000,-1065000l2000 2077000z"/>
    <path class="fil1" d="M2475000 4008000c463000,12000 3909000,52000 4061000,-23000l-2023000 4000 1516000 -2442000c115000,-195000 443000,-654000 496000,-831000l-2026000 3000 -2024000 3289000z"/>
    <path class="fil2" d="M2475000 4008000l2024000 -3289000 -2001000 -2000c-173000,211000 -370000,566000 -522000,816000l-1030000 1651000c-144000,234000 -413000,605000 -499000,821000l2028000 3000z"/>
    <path class="fil0" d="M13411000 1927000l0 -294000 -612000 -5000 -8000 2381000 656000 12000c46000,-869000 -190000,-1884000 420000,-1932000 454000,-36000 421000,363000 420000,747000 0,384000 -12000,789000 3000,1170000l652000 15000c23000,-367000 5000,-783000 4000,-1151000 0,-392000 9000,-763000 412000,-783000 641000,-33000 370000,965000 431000,1935000l650000 -2000c27000,-412000 54000,-1792000 -91000,-2074000 -115000,-227000 -363000,-370000 -718000,-381000 -171000,-5000 -330000,25000 -460000,99000l-321000 268000c-159000,-201000 -254000,-375000 -714000,-368000 -434000,8000 -565000,235000 -724000,363000z"/>
    <path class="fil0" d="M16755000 2362000l638000 8000c124000,-227000 87000,-366000 475000,-363000 248000,1000 520000,153000 376000,424000 -122000,230000 -985000,148000 -1307000,390000 -386000,292000 -324000,924000 45000,1138000 404000,234000 1012000,115000 1293000,-138000l68000 199000 659000 2000c-255000,-978000 228000,-2011000 -402000,-2326000 -415000,-207000 -1757000,-309000 -1845000,666000zm1516000 509000c-245000,94000 -452000,79000 -687000,157000 -236000,77000 -354000,374000 -138000,537000 171000,129000 501000,88000 646000,-29000 186000,-148000 179000,-368000 179000,-665000z"/>
    <path class="fil0" d="M23176000 3703000l9000 319000 621000 -1000 5000 -2393000 -663000 -1000c5000,401000 4000,808000 2000,1210000 -3000,406000 -50000,703000 -464000,726000 -438000,23000 -463000,-344000 -463000,-727000 -1000,-403000 -3000,-808000 2000,-1210000l-664000 1000c6000,1376000 -261000,2502000 917000,2454000 371000,-16000 542000,-189000 698000,-378000z"/>
    <path class="fil0" d="M19734000 3241000l-590000 -1000c35000,600000 470000,834000 1099000,841000 590000,7000 1109000,-211000 1117000,-804000 11000,-862000 -1261000,-621000 -1464000,-946000 -187000,-298000 315000,-397000 588000,-277000 185000,81000 116000,197000 234000,275000l576000 -1000c-109000,-1030000 -1573000,-839000 -1902000,-513000 -157000,157000 -264000,471000 -152000,733000 193000,454000 875000,357000 1334000,601000 430000,229000 -227000,698000 -640000,404000 -103000,-73000 -117000,-135000 -153000,-218000l-47000 -94000z"/>
    <path class="fil0" d="M24845000 2030000l-1000 -395000 -613000 -7000 -11000 2385000 656000 6000c17000,-388000 -43000,-1004000 27000,-1343000 118000,-567000 571000,-473000 859000,-491000l-3000 -588000c-341000,-122000 -631000,88000 -827000,329000l-87000 104000z"/>
    <polygon class="fil0" points="11775000,4008000 12430000,4021000 12434000,1631000 11782000,1629000 "/>
    <polygon class="fil0" points="11775000,1253000 12423000,1262000 12432000,720000 11786000,718000 "/>
   </g>
   <g>
    <path class="fil3" d="M25835000 1316000c-75000,-439000 532000,-515000 600000,-128000 34000,193000 -89000,351000 -243000,379000 -187000,33000 -330000,-97000 -357000,-251000zm177000 -450000c-527000,168000 -285000,925000 244000,776000 532000,-148000 287000,-946000 -244000,-776000z"/>
    <path class="fil3" d="M26065000 1097000c241000,-28000 223000,149000 -2000,111000l2000 -111000zm-92000 381000l89000 1000 2000 -191000c73000,-12000 71000,23000 100000,74000 22000,38000 48000,80000 63000,117000l93000 0c-28000,-70000 -87000,-132000 -110000,-195000 48000,-26000 84000,-22000 102000,-69000 21000,-54000 8000,-124000 -20000,-152000 -55000,-52000 -226000,-41000 -320000,-39000l1000 454000z"/>
   </g>
  </g>
 </g>
</svg>
