<?xml version="1.0" encoding="UTF-8"?>
<svg id="Capa_2" data-name="Capa 2" xmlns="http://www.w3.org/2000/svg" viewBox="0 0 3234.81 657.07">
  <defs>
    <style>
      .cls-1 {
        fill: #4ca736;
        stroke-width: 0px;
      }
    </style>
  </defs>
  <g id="Variantes">
    <g>
      <g>
        <path class="cls-1" d="M1062.53,215.81c82.59,0,141.69,42.1,160.31,87.44h1.62c-.81-12.14-1.62-23.48-1.62-44.53v-29.95h60.72v415.36h-60.72v-38.06c0-18.62.81-32.39,1.62-45.34h-1.62c-20.24,54.24-81.78,95.54-161.93,96.35-131.97,0-216.18-94.73-216.18-221.03s89.06-220.23,217.8-220.23ZM1221.22,436.04c0-93.93-64.77-162.74-156.26-162.74s-154.65,68.81-154.65,162.74,66.39,162.74,154.65,162.74,156.26-69.63,156.26-162.74Z"/>
        <path class="cls-1" d="M1597.7,228.76v57.49h-121.45v357.87h-64.77V228.76h186.22Z"/>
        <path class="cls-1" d="M1980.67,341.3c-27.53-40.48-72.06-68-129.54-68-89.88,0-154.65,68-154.65,162.74s64.77,162.74,154.65,162.74c59.91,0,105.25-30.77,132.78-72.87l39.67,38.86c-34.82,54.25-97.16,92.3-172.46,92.3-130.36,0-221.04-94.73-221.04-221.03s94.73-220.23,221.04-220.23c71.25,0,131.16,31.58,170.03,85.01l-40.48,40.48Z"/>
        <path class="cls-1" d="M2121.53,285.44h-47.77v-56.68h47.77v-110.92h64.77v110.92h127.93v56.68h-127.93v301.19h115.78v57.49h-180.56v-358.68Z"/>
        <path class="cls-1" d="M2575.75,657.07c-126.31,0-219.42-94.73-219.42-221.03s93.11-220.23,218.61-220.23,204.84,94.73,204.84,220.23c0,8.1-.81,21.86-1.62,28.34h-353.82c11.34,80.16,70.44,134.4,152.22,134.4,55.86,0,99.59-23.48,131.97-63.96l38.05,38.86c-40.48,54.25-99.59,83.4-170.84,83.4ZM2424.34,409.31h290.67c-4.86-78.54-60.72-136.02-140.88-136.02s-139.26,55.05-149.79,136.02Z"/>
        <path class="cls-1" d="M3191.89,341.3c-27.53-40.48-72.06-68-129.54-68-89.88,0-154.65,68-154.65,162.74s64.77,162.74,154.65,162.74c59.91,0,105.25-30.77,132.78-72.87l39.67,38.86c-34.82,54.25-97.16,92.3-172.46,92.3-130.36,0-221.04-94.73-221.04-221.03s94.73-220.23,221.04-220.23c71.25,0,131.16,31.58,170.03,85.01l-40.48,40.48Z"/>
      </g>
      <polygon class="cls-1" points="658.51 212.22 658.51 657.07 446.29 657.07 446.29 351.26 212.17 550.98 212.19 657.07 0 657.07 0 444.88 285.19 212.22 0 212.22 0 0 446.29 0 446.32 212.19 585.32 212.22 658.51 212.22"/>
    </g>
  </g>
</svg>