<?xml version="1.0" encoding="UTF-8"?>
<!DOCTYPE svg PUBLIC "-//W3C//DTD SVG 1.1//EN" "http://www.w3.org/Graphics/SVG/1.1/DTD/svg11.dtd">
<!-- Creator: CorelDRAW -->
<svg xmlns="http://www.w3.org/2000/svg" xml:space="preserve" width="55px" height="47px" version="1.1" style="shape-rendering:geometricPrecision; text-rendering:geometricPrecision; image-rendering:optimizeQuality; fill-rule:evenodd; clip-rule:evenodd"
viewBox="0 0 5500000 4671000"
 xmlns:xlink="http://www.w3.org/1999/xlink"
 xmlns:xodm="http://www.corel.com/coreldraw/odm/2003">
 <defs>
  <style type="text/css">
   <![CDATA[
    .fil1 {fill:#377C2B}
    .fil3 {fill:#387C2A}
    .fil0 {fill:#E7E7E8}
    .fil4 {fill:#FEDC00}
    .fil2 {fill:#FFE800}
   ]]>
  </style>
 </defs>
 <g id="Capa_x0020_1">
  <metadata id="CorelCorpID_0Corel-Layer"/>
  <g id="_2128679840960">
   <rect class="fil0" x="-33000" y="50000" width="5500000" height="4671000"/>
   <rect class="fil1" x="-33000" y="50000" width="793000" height="4671000"/>
   <rect class="fil2" x="760000" y="50000" width="400000" height="4671000"/>
   <g>
    <path class="fil3" d="M4298000 3239000c-20000,-56000 -100000,-160000 -140000,-200000 -26000,-25000 -26000,-39000 -66000,-51000 -113000,-34000 -232000,-71000 -338000,-118000 -83000,-37000 -120000,-82000 -172000,-133000 -15000,-14000 -16000,-31000 -42000,-33000 -74000,-5000 -150000,-2000 -222000,6000 -93000,12000 -188000,29000 -283000,18000 -177000,-19000 -306000,-113000 -499000,-113000 19000,62000 111000,167000 161000,203000 18000,14000 34000,24000 56000,34000 72000,34000 59000,-3000 107000,76000 5000,9000 33000,45000 29000,57000 -5000,2000 -11000,0 -17000,-3000 -8000,-4000 -13000,-7000 -20000,-11000 -13000,-7000 -24000,-14000 -37000,-21000 -24000,-14000 -48000,-29000 -72000,-45000 -105000,-69000 -240000,-170000 -317000,-269000 -30000,-37000 -31000,-30000 -37000,-83000 62000,-13000 80000,-29000 183000,-45000 67000,-11000 141000,-17000 209000,-22000 10000,-78000 23000,-142000 44000,-213000 9000,-32000 21000,-64000 33000,-94000 46000,-110000 63000,-87000 -49000,-111000 -30000,-7000 -59000,-13000 -89000,-19000l-14000 -48000c39000,-27000 249000,-81000 316000,-98000 9000,-2000 17000,-4000 26000,-6000 15000,-3000 15000,-1000 22000,-14000 63000,-125000 -119000,-115000 -206000,-99000 -66000,12000 -130000,30000 -191000,53000l-19000 6000c-9000,0 -1000,2000 -7000,-2000 -4000,-14000 41000,-39000 54000,-47000 20000,-13000 47000,-31000 70000,-40000 -10000,-39000 -42000,-60000 -76000,-77000 -14000,-7000 -8000,-1000 -13000,-12000 43000,-7000 124000,31000 141000,69000 17000,-3000 37000,-10000 54000,-14000 22000,-5000 39000,-7000 61000,-9000 -2000,-49000 -26000,-92000 -57000,-122000 -11000,-10000 -25000,-19000 -32000,-31000 39000,-13000 148000,73000 167000,150000 44000,3000 50000,6000 87000,16000 21000,-61000 20000,-123000 -13000,-182000 -4000,-8000 -9000,-17000 -14000,-24000 -5000,-7000 -10000,-10000 -12000,-17000l0 -3000c0,0 0,-1000 0,-2000 19000,-9000 70000,41000 78000,51000 83000,99000 57000,213000 27000,324000 36000,-3000 180000,-41000 202000,-29000 -8000,19000 -119000,112000 -150000,112000 -21000,1000 -54000,-7000 -79000,-8000 -19000,28000 -50000,199000 -54000,244000 -17000,203000 132000,178000 273000,177000 94000,0 191000,3000 284000,16000 47000,7000 83000,17000 125000,28000 34000,-130000 -79000,-238000 -88000,-270000 16000,-4000 25000,6000 40000,16000 14000,10000 22000,15000 36000,26000 26000,20000 43000,40000 66000,60000 38000,35000 84000,111000 86000,168000l-83000 33000c90000,95000 101000,195000 140000,314000 28000,86000 69000,96000 159000,147000 16000,9000 33000,18000 49000,26000 36000,19000 127000,209000 152000,231000 17000,-28000 54000,-172000 65000,-214000 19000,-76000 34000,-156000 45000,-235000 45000,-327000 21000,-684000 -74000,-998000l-53000 -156000c-12000,-33000 -4000,-23000 -35000,-37000 -506000,-225000 -1113000,-276000 -1662000,-125000 -108000,29000 -210000,65000 -312000,108000 -65000,27000 -65000,20000 -80000,62000 -167000,453000 -193000,969000 -61000,1449000 18000,64000 43000,153000 69000,211000 7000,15000 27000,19000 42000,26000l151000 60000c450000,162000 980000,195000 1459000,72000 184000,-48000 252000,-82000 417000,-146000z"/>
    <path class="fil4" d="M4298000 3239000c-165000,64000 -233000,98000 -417000,146000 -479000,123000 -1009000,90000 -1459000,-72000l-151000 -60000c-15000,-7000 -35000,-11000 -42000,-26000 -26000,-58000 -51000,-147000 -69000,-211000 -132000,-480000 -106000,-996000 61000,-1449000 15000,-42000 15000,-35000 80000,-62000 102000,-43000 204000,-79000 312000,-108000 549000,-151000 1156000,-100000 1662000,125000 31000,14000 23000,4000 35000,37000l53000 156000c95000,314000 119000,671000 74000,998000 -11000,79000 -26000,159000 -45000,235000 -11000,42000 -48000,186000 -65000,214000 -25000,-22000 -116000,-212000 -152000,-231000 -16000,-8000 -33000,-17000 -49000,-26000 -90000,-51000 -131000,-61000 -159000,-147000 -39000,-119000 -50000,-219000 -140000,-314000l83000 -33000c-2000,-57000 -48000,-133000 -86000,-168000 -23000,-20000 -40000,-40000 -66000,-60000 -14000,-11000 -22000,-16000 -36000,-26000 -15000,-10000 -24000,-20000 -40000,-16000 9000,32000 122000,140000 88000,270000 -42000,-11000 -78000,-21000 -125000,-28000 -93000,-13000 -190000,-16000 -284000,-16000 -141000,1000 -290000,26000 -273000,-177000 4000,-45000 35000,-216000 54000,-244000 25000,1000 58000,9000 79000,8000 31000,0 142000,-93000 150000,-112000 -22000,-12000 -166000,26000 -202000,29000 30000,-111000 56000,-225000 -27000,-324000 -8000,-10000 -59000,-60000 -78000,-51000 0,1000 0,2000 0,2000l0 3000c2000,7000 7000,10000 12000,17000 5000,7000 10000,16000 14000,24000 33000,59000 34000,121000 13000,182000 -37000,-10000 -43000,-13000 -87000,-16000 -19000,-77000 -128000,-163000 -167000,-150000 7000,12000 21000,21000 32000,31000 31000,30000 55000,73000 57000,122000 -22000,2000 -39000,4000 -61000,9000 -17000,4000 -37000,11000 -54000,14000 -17000,-38000 -98000,-76000 -141000,-69000 5000,11000 -1000,5000 13000,12000 34000,17000 66000,38000 76000,77000 -23000,9000 -50000,27000 -70000,40000 -13000,8000 -58000,33000 -54000,47000 6000,4000 -2000,2000 7000,2000l19000 -6000c61000,-23000 125000,-41000 191000,-53000 87000,-16000 269000,-26000 206000,99000 -7000,13000 -7000,11000 -22000,14000 -9000,2000 -17000,4000 -26000,6000 -67000,17000 -277000,71000 -316000,98000l14000 48000c30000,6000 59000,12000 89000,19000 112000,24000 95000,1000 49000,111000 -12000,30000 -24000,62000 -33000,94000 -21000,71000 -34000,135000 -44000,213000 -68000,5000 -142000,11000 -209000,22000 -103000,16000 -121000,32000 -183000,45000 6000,53000 7000,46000 37000,83000 77000,99000 212000,200000 317000,269000 24000,16000 48000,31000 72000,45000 13000,7000 24000,14000 37000,21000 7000,4000 12000,7000 20000,11000 6000,3000 12000,5000 17000,3000 4000,-12000 -24000,-48000 -29000,-57000 -48000,-79000 -35000,-42000 -107000,-76000 -22000,-10000 -38000,-20000 -56000,-34000 -50000,-36000 -142000,-141000 -161000,-203000 193000,0 322000,94000 499000,113000 95000,11000 190000,-6000 283000,-18000 72000,-8000 148000,-11000 222000,-6000 26000,2000 27000,19000 42000,33000 52000,51000 89000,96000 172000,133000 106000,47000 225000,84000 338000,118000 40000,12000 40000,26000 66000,51000 40000,40000 120000,144000 140000,200000zm-1169000 -1994000c-175000,9000 -361000,36000 -522000,81000 -133000,37000 -262000,79000 -387000,137000 -10000,4000 -17000,7000 -27000,12000 -13000,6000 -17000,4000 -23000,16000 -48000,98000 -113000,366000 -132000,470000 -62000,352000 -44000,740000 53000,1082000 23000,79000 47000,151000 74000,225000 9000,23000 7000,19000 41000,34000 561000,246000 1113000,291000 1720000,143000 119000,-29000 274000,-84000 388000,-136000 16000,-7000 42000,-13000 50000,-28000 48000,-98000 113000,-368000 131000,-471000 62000,-340000 46000,-749000 -51000,-1078000 -24000,-80000 -47000,-151000 -75000,-226000 -11000,-32000 -8000,-23000 -37000,-37000 -346000,-165000 -798000,-246000 -1203000,-224000z"/>
    <path class="fil3" d="M3129000 1245000c405000,-22000 857000,59000 1203000,224000 29000,14000 26000,5000 37000,37000 28000,75000 51000,146000 75000,226000 97000,329000 113000,738000 51000,1078000 -18000,103000 -83000,373000 -131000,471000 -8000,15000 -34000,21000 -50000,28000 -114000,52000 -269000,107000 -388000,136000 -607000,148000 -1159000,103000 -1720000,-143000 -34000,-15000 -32000,-11000 -41000,-34000 -27000,-74000 -51000,-146000 -74000,-225000 -97000,-342000 -115000,-730000 -53000,-1082000 19000,-104000 84000,-372000 132000,-470000 6000,-12000 10000,-10000 23000,-16000 10000,-5000 17000,-8000 27000,-12000 125000,-58000 254000,-100000 387000,-137000 161000,-45000 347000,-72000 522000,-81000zm204000 2386000l-79000 0c-59000,0 -123000,-2000 -196000,-6000 -22000,-1000 -48000,-5000 -71000,-7000 -136000,-11000 -332000,-52000 -461000,-89000 -84000,-24000 -265000,-86000 -345000,-124000 -19000,-10000 -36000,-17000 -55000,-26000 -37000,-19000 -35000,-11000 -44000,-34000 -15000,-38000 -29000,-75000 -43000,-113000 -7000,-19000 -13000,-39000 -20000,-59000 -6000,-18000 -13000,-42000 -18000,-60000 -82000,-293000 -105000,-467000 -105000,-780000 0,-226000 52000,-524000 124000,-738000l41000 -115000c18000,-46000 18000,-67000 41000,-77000l80000 -37000c233000,-101000 479000,-174000 732000,-205000 172000,-21000 237000,-22000 403000,-22000l8000 0c221000,0 483000,44000 698000,105000 124000,36000 290000,99000 405000,155000 15000,7000 15000,4000 21000,21000 5000,11000 8000,18000 11000,28000 177000,440000 218000,910000 140000,1380000 -25000,155000 -83000,355000 -141000,499000 -17000,42000 -9000,37000 -89000,71000 -125000,53000 -221000,91000 -353000,129000 -41000,12000 -83000,24000 -126000,33000 -235000,49000 -380000,69000 -558000,71000z"/>
   </g>
  </g>
 </g>
</svg>
