<?xml version="1.0" encoding="UTF-8"?>
<!DOCTYPE svg PUBLIC "-//W3C//DTD SVG 1.1//EN" "http://www.w3.org/Graphics/SVG/1.1/DTD/svg11.dtd">
<!-- Creator: CorelDRAW -->
<svg xmlns="http://www.w3.org/2000/svg" xml:space="preserve" width="190px" height="47px" version="1.1" style="shape-rendering:geometricPrecision; text-rendering:geometricPrecision; image-rendering:optimizeQuality; fill-rule:evenodd; clip-rule:evenodd"
viewBox="0 0 19000000 4700000"
 xmlns:xlink="http://www.w3.org/1999/xlink"
 xmlns:xodm="http://www.corel.com/coreldraw/odm/2003">
 <defs>
  <style type="text/css">
   <![CDATA[
    .fil5 {fill:#377C2B}
    .fil1 {fill:#377C2B}
    .fil6 {fill:#387B2B}
    .fil3 {fill:#387C2A}
    .fil0 {fill:#E7E7E8}
    .fil4 {fill:#FEDC00}
    .fil2 {fill:#FFE800}
   ]]>
  </style>
 </defs>
 <g id="Capa_x0020_1">
  <metadata id="CorelCorpID_0Corel-Layer"/>
  <g id="_2128465529056">
   <g>
    <rect class="fil0" y="50000" width="19000000" height="4700000"/>
    <rect class="fil1" y="50000" width="797000" height="4700000"/>
    <rect class="fil2" x="797000" y="50000" width="402000" height="4700000"/>
   </g>
   <g>
    <g>
     <path class="fil3" d="M5358000 3259000c-21000,-56000 -101000,-161000 -142000,-201000 -25000,-25000 -26000,-39000 -66000,-52000 -113000,-34000 -233000,-71000 -340000,-118000 -83000,-37000 -120000,-82000 -173000,-134000 -14000,-15000 -16000,-31000 -42000,-33000 -74000,-5000 -150000,-3000 -223000,6000 -94000,12000 -190000,29000 -285000,18000 -178000,-19000 -308000,-113000 -502000,-114000 19000,62000 112000,168000 161000,204000 19000,14000 35000,24000 58000,35000 72000,33000 58000,-4000 107000,76000 5000,9000 33000,45000 30000,57000 -6000,3000 -12000,0 -18000,-3000 -8000,-4000 -13000,-6000 -20000,-10000 -13000,-8000 -24000,-14000 -37000,-22000 -25000,-14000 -49000,-29000 -73000,-45000 -105000,-69000 -241000,-171000 -319000,-270000 -30000,-38000 -31000,-31000 -37000,-84000 62000,-13000 80000,-29000 184000,-46000 68000,-10000 142000,-17000 210000,-22000 11000,-78000 23000,-142000 45000,-214000 9000,-32000 21000,-64000 33000,-94000 46000,-111000 63000,-88000 -49000,-112000 -31000,-7000 -60000,-13000 -90000,-19000l-14000 -48000c39000,-28000 251000,-82000 318000,-99000 9000,-2000 17000,-4000 26000,-6000 15000,-4000 15000,-2000 22000,-15000 64000,-125000 -119000,-115000 -208000,-99000 -65000,12000 -130000,30000 -192000,54000l-19000 6000c-8000,-1000 -1000,1000 -7000,-2000 -3000,-14000 41000,-40000 54000,-48000 21000,-13000 48000,-31000 72000,-40000 -11000,-40000 -43000,-60000 -77000,-78000 -14000,-7000 -8000,-1000 -13000,-12000 43000,-6000 124000,31000 141000,70000 18000,-3000 37000,-10000 55000,-14000 22000,-6000 39000,-8000 61000,-9000 -2000,-50000 -26000,-93000 -57000,-123000 -11000,-10000 -25000,-19000 -33000,-32000 40000,-12000 150000,75000 169000,152000 44000,3000 50000,5000 88000,16000 21000,-62000 20000,-124000 -13000,-183000 -5000,-9000 -10000,-18000 -15000,-25000 -5000,-6000 -10000,-10000 -12000,-16000l0 -4000c0,0 0,-1000 1000,-2000 18000,-9000 69000,42000 77000,51000 84000,100000 58000,214000 28000,327000 36000,-4000 181000,-42000 203000,-30000 -8000,19000 -120000,113000 -151000,114000 -21000,0 -54000,-8000 -79000,-9000 -19000,28000 -51000,200000 -55000,246000 -17000,204000 133000,179000 275000,178000 94000,-1000 192000,2000 286000,16000 47000,7000 83000,17000 126000,27000 34000,-130000 -80000,-238000 -89000,-271000 16000,-4000 25000,6000 40000,17000 14000,9000 22000,15000 36000,26000 26000,19000 44000,39000 67000,60000 39000,35000 84000,112000 87000,169000l-84000 34000c90000,94000 101000,195000 141000,315000 28000,87000 69000,96000 159000,148000 17000,9000 34000,18000 50000,26000 36000,19000 127000,210000 153000,232000 17000,-28000 55000,-173000 65000,-215000 19000,-76000 34000,-157000 45000,-236000 46000,-330000 22000,-688000 -74000,-1004000l-53000 -157000c-12000,-33000 -4000,-24000 -35000,-37000 -509000,-227000 -1120000,-278000 -1673000,-126000 -108000,29000 -211000,65000 -314000,108000 -65000,27000 -65000,20000 -80000,63000 -168000,455000 -194000,975000 -62000,1458000 18000,64000 44000,154000 70000,212000 7000,15000 27000,19000 43000,26000l152000 61000c452000,162000 985000,196000 1468000,71000 184000,-47000 252000,-81000 419000,-146000z"/>
     <path class="fil4" d="M5358000 3259000c-167000,65000 -235000,99000 -419000,146000 -483000,125000 -1016000,91000 -1468000,-71000l-152000 -61000c-16000,-7000 -36000,-11000 -43000,-26000 -26000,-58000 -52000,-148000 -70000,-212000 -132000,-483000 -106000,-1003000 62000,-1458000 15000,-43000 15000,-36000 80000,-63000 103000,-43000 206000,-79000 314000,-108000 553000,-152000 1164000,-101000 1673000,126000 31000,13000 23000,4000 35000,37000l53000 157000c96000,316000 120000,674000 74000,1004000 -11000,79000 -26000,160000 -45000,236000 -10000,42000 -48000,187000 -65000,215000 -26000,-22000 -117000,-213000 -153000,-232000 -16000,-8000 -33000,-17000 -50000,-26000 -90000,-52000 -131000,-61000 -159000,-148000 -40000,-120000 -51000,-221000 -141000,-315000l84000 -34000c-3000,-57000 -48000,-134000 -87000,-169000 -23000,-21000 -41000,-41000 -67000,-60000 -14000,-11000 -22000,-17000 -36000,-26000 -15000,-11000 -24000,-21000 -40000,-17000 9000,33000 123000,141000 89000,271000 -43000,-10000 -79000,-20000 -126000,-27000 -94000,-14000 -192000,-17000 -286000,-16000 -142000,1000 -292000,26000 -275000,-178000 4000,-46000 36000,-218000 55000,-246000 25000,1000 58000,9000 79000,9000 31000,-1000 143000,-95000 151000,-114000 -22000,-12000 -167000,26000 -203000,30000 30000,-113000 56000,-227000 -28000,-327000 -8000,-9000 -59000,-60000 -77000,-51000 -1000,1000 -1000,2000 -1000,2000l0 4000c2000,6000 7000,10000 12000,16000 5000,7000 10000,16000 15000,25000 33000,59000 34000,121000 13000,183000 -38000,-11000 -44000,-13000 -88000,-16000 -19000,-77000 -129000,-164000 -169000,-152000 8000,13000 22000,22000 33000,32000 31000,30000 55000,73000 57000,123000 -22000,1000 -39000,3000 -61000,9000 -18000,4000 -37000,11000 -55000,14000 -17000,-39000 -98000,-76000 -141000,-70000 5000,11000 -1000,5000 13000,12000 34000,18000 66000,38000 77000,78000 -24000,9000 -51000,27000 -72000,40000 -13000,8000 -57000,34000 -54000,48000 6000,3000 -1000,1000 7000,2000l19000 -6000c62000,-24000 127000,-42000 192000,-54000 89000,-16000 272000,-26000 208000,99000 -7000,13000 -7000,11000 -22000,15000 -9000,2000 -17000,4000 -26000,6000 -67000,17000 -279000,71000 -318000,99000l14000 48000c30000,6000 59000,12000 90000,19000 112000,24000 95000,1000 49000,112000 -12000,30000 -24000,62000 -33000,94000 -22000,72000 -34000,136000 -45000,214000 -68000,5000 -142000,12000 -210000,22000 -104000,17000 -122000,33000 -184000,46000 6000,53000 7000,46000 37000,84000 78000,99000 214000,201000 319000,270000 24000,16000 48000,31000 73000,45000 13000,8000 24000,14000 37000,22000 7000,4000 12000,6000 20000,10000 6000,3000 12000,6000 18000,3000 3000,-12000 -25000,-48000 -30000,-57000 -49000,-80000 -35000,-43000 -107000,-76000 -23000,-11000 -39000,-21000 -58000,-35000 -49000,-36000 -142000,-142000 -161000,-204000 194000,1000 324000,95000 502000,114000 95000,11000 191000,-6000 285000,-18000 73000,-9000 149000,-11000 223000,-6000 26000,2000 28000,18000 42000,33000 53000,52000 90000,97000 173000,134000 107000,47000 227000,84000 340000,118000 40000,13000 41000,27000 66000,52000 41000,40000 121000,145000 142000,201000zm-1176000 -2007000c-177000,10000 -363000,37000 -525000,82000 -134000,38000 -265000,80000 -390000,138000 -10000,4000 -18000,7000 -27000,12000 -13000,6000 -17000,4000 -23000,16000 -48000,99000 -114000,369000 -133000,474000 -63000,353000 -44000,744000 53000,1087000 23000,80000 48000,153000 75000,227000 9000,23000 7000,19000 41000,34000 564000,248000 1120000,293000 1730000,145000 120000,-30000 276000,-86000 391000,-137000 16000,-7000 42000,-14000 50000,-29000 48000,-99000 114000,-370000 132000,-473000 62000,-343000 46000,-754000 -52000,-1086000 -23000,-79000 -47000,-151000 -74000,-226000 -12000,-33000 -9000,-24000 -38000,-38000 -348000,-166000 -803000,-247000 -1210000,-226000z"/>
     <path class="fil3" d="M4182000 1252000c407000,-21000 862000,60000 1210000,226000 29000,14000 26000,5000 38000,38000 27000,75000 51000,147000 74000,226000 98000,332000 114000,743000 52000,1086000 -18000,103000 -84000,374000 -132000,473000 -8000,15000 -34000,22000 -50000,29000 -115000,51000 -271000,107000 -391000,137000 -610000,148000 -1166000,103000 -1730000,-145000 -34000,-15000 -32000,-11000 -41000,-34000 -27000,-74000 -52000,-147000 -75000,-227000 -97000,-343000 -116000,-734000 -53000,-1087000 19000,-105000 85000,-375000 133000,-474000 6000,-12000 10000,-10000 23000,-16000 9000,-5000 17000,-8000 27000,-12000 125000,-58000 256000,-100000 390000,-138000 162000,-45000 348000,-72000 525000,-82000zm204000 2402000l-79000 0c-59000,-1000 -124000,-3000 -197000,-7000 -22000,-1000 -48000,-4000 -72000,-6000 -136000,-12000 -333000,-53000 -464000,-90000 -84000,-24000 -266000,-86000 -346000,-125000 -20000,-10000 -36000,-17000 -56000,-26000 -37000,-19000 -35000,-11000 -44000,-35000 -15000,-38000 -29000,-75000 -43000,-113000 -7000,-19000 -13000,-39000 -20000,-59000 -6000,-18000 -13000,-43000 -18000,-60000 -83000,-296000 -106000,-471000 -106000,-786000 0,-227000 52000,-527000 125000,-742000l41000 -116000c18000,-47000 18000,-67000 41000,-77000l80000 -38000c235000,-101000 482000,-175000 737000,-206000 173000,-21000 239000,-22000 405000,-22000l8000 0c223000,0 487000,45000 703000,106000 124000,35000 292000,100000 407000,156000 15000,7000 15000,4000 22000,21000 4000,11000 7000,18000 11000,28000 177000,443000 219000,916000 141000,1388000 -26000,157000 -84000,357000 -142000,503000 -17000,42000 -9000,37000 -90000,71000 -125000,54000 -222000,91000 -355000,130000 -41000,12000 -83000,24000 -127000,33000 -236000,49000 -382000,69000 -562000,72000z"/>
    </g>
    <path class="fil5" d="M11449000 2768000l-337000 0 0 -766000 324000 0c215000,0 409000,120000 409000,360000 0,86000 -2000,123000 -33000,200000 -21000,52000 -46000,75000 -81000,109000 -60000,60000 -192000,97000 -282000,97000zm-553000 184000c0,7000 2000,10000 10000,10000l514000 0c98000,0 184000,-17000 259000,-39000 68000,-21000 141000,-61000 195000,-106000 129000,-109000 187000,-262000 187000,-438000 0,-89000 -23000,-190000 -52000,-249000 -48000,-97000 -45000,-78000 -90000,-136000 -13000,-17000 -24000,-23000 -39000,-37000 -43000,-43000 -135000,-88000 -193000,-108000 -72000,-24000 -170000,-40000 -264000,-40000l-527000 0 0 1143000z"/>
    <path class="fil3" d="M14762000 2434000l-396000 0 0 -206000 380000 0c76000,0 124000,29000 124000,108000 0,61000 -47000,98000 -108000,98000zm-622000 528000l216000 0 0 -338000 243000 0c8000,0 7000,3000 18000,18000 6000,8000 9000,13000 15000,21000 12000,15000 22000,27000 33000,42000l129000 170000c7000,10000 61000,77000 63000,87000l259000 0c-2000,-10000 -8000,-15000 -14000,-22000 -6000,-9000 -10000,-14000 -17000,-23000 -25000,-32000 -227000,-292000 -231000,-309000 52000,-4000 120000,-52000 155000,-91000 118000,-133000 97000,-479000 -263000,-479000l-606000 0 0 924000z"/>
    <path class="fil6" d="M9393000 2962000l213000 0 0 -626000 535000 607000c6000,7000 11000,19000 21000,19000l210000 0 0 -924000 -216000 0 0 619000c-5000,-4000 -29000,-31000 -34000,-38000l-313000 -349000c-7000,-8000 -8000,-12000 -16000,-20000 -8000,-8000 -11000,-10000 -17000,-19000 -6000,-8000 -10000,-10000 -17000,-18000 -27000,-28000 -77000,-90000 -105000,-118000 -10000,-10000 -45000,-57000 -55000,-57000l-206000 0 0 924000z"/>
    <path class="fil5" d="M7242000 2500000c0,-70000 14000,-126000 51000,-178000 6000,-10000 9000,-11000 17000,-19000 3000,-4000 5000,-6000 7000,-9000l4000 -3000c112000,-108000 355000,-104000 466000,-31000 23000,15000 44000,32000 60000,53000 89000,117000 78000,325000 -43000,416000 -95000,71000 -265000,80000 -374000,44000 -30000,-10000 -54000,-21000 -77000,-37000 -78000,-53000 -111000,-129000 -111000,-236000zm-213000 -23000c0,105000 6000,159000 51000,250000 27000,54000 65000,103000 112000,140000 81000,62000 165000,94000 268000,109000l119000 9000c15000,-1000 14000,-3000 26000,-4000 33000,-2000 35000,3000 88000,-6000 78000,-14000 123000,-27000 192000,-61000 313000,-159000 310000,-672000 3000,-828000 -154000,-78000 -371000,-93000 -533000,-39000 -33000,11000 -60000,20000 -89000,36000 -59000,33000 -48000,28000 -93000,64000 -7000,6000 -10000,7000 -17000,15000 -77000,80000 -127000,201000 -127000,315000z"/>
    <polygon class="fil3" points="13155000,2962000 14003000,2962000 14003000,2772000 13368000,2772000 13368000,2595000 13859000,2595000 13859000,2405000 13368000,2405000 13368000,2228000 14003000,2228000 14003000,2038000 13155000,2038000 "/>
    <polygon class="fil3" points="12169000,2962000 13014000,2962000 13014000,2772000 12382000,2772000 12382000,2595000 12873000,2595000 12873000,2405000 12382000,2405000 12382000,2228000 13014000,2228000 13014000,2038000 12169000,2038000 "/>
    <polygon class="fil3" points="15214000,2962000 16059000,2962000 16059000,2772000 15427000,2772000 15427000,2595000 15918000,2595000 15918000,2405000 15427000,2405000 15427000,2228000 16059000,2228000 16059000,2038000 15214000,2038000 "/>
    <polygon class="fil5" points="8244000,2962000 8456000,2962000 8456000,2595000 9006000,2595000 9006000,2962000 9223000,2962000 9223000,2038000 9006000,2038000 9006000,2405000 8456000,2405000 8456000,2038000 8244000,2038000 "/>
    <path class="fil6" d="M6361000 2785000c-73000,0 -137000,-10000 -203000,-26000l-62000 -17000 0 213000c68000,16000 217000,29000 294000,30000 28000,0 46000,-3000 76000,-4000 81000,0 187000,-27000 257000,-66000 139000,-78000 181000,-226000 181000,-392000l0 -714000 -206000 0c-14000,0 -10000,15000 -10000,30000 3000,196000 0,418000 0,615000 0,78000 6000,154000 -26000,220000 -11000,22000 -17000,29000 -35000,46000 -51000,50000 -165000,65000 -266000,65000z"/>
   </g>
  </g>
 </g>
</svg>
